<svg width="200" height="200" viewBox="0 0 200 200" fill="none" xmlns="http://www.w3.org/2000/svg">
<g id="Group 8">
<rect id="Rectangle" x="100" y="128" width="100" height="100" transform="rotate(-180 100 128)" fill="#2C6269"/>
<path id="Combined Shape Copy" fill-rule="evenodd" clip-rule="evenodd" d="M100 228C155.228 228 200 183.228 200 128C200 72.7715 155.228 28 100 28C44.7715 28 0 72.7715 0 128C0 183.228 44.7715 228 100 228ZM100 161C118.225 161 133 146.225 133 128C133 109.775 118.225 95 100 95C81.7746 95 67 109.775 67 128C67 146.225 81.7746 161 100 161Z" fill="#004047"/>
<path id="Combined Shape" fill-rule="evenodd" clip-rule="evenodd" d="M100 84H0V88H100V84ZM100 92H0V96H100V92ZM0 100H100V104H0V100ZM100 108H0V112H100V108ZM0 116H100V120H0V116ZM100 124H0V128H100V124Z" fill="#F67E7E"/>
<path id="Combined Shape_2" fill-rule="evenodd" clip-rule="evenodd" d="M0 -16H4V-12H0V-16ZM11 -16H7V-12H11V-16ZM11 -8H7V-4H11V-8ZM7 0H11V4H7V0ZM11 8H7V12H11V8ZM7 16H11V20H7V16ZM11 24H7V28H11V24ZM14 -16H18V-12H14V-16ZM14 -8H18V-4H14V-8ZM18 0H14V4H18V0ZM14 8H18V12H14V8ZM18 16H14V20H18V16ZM14 24H18V28H14V24ZM0 -8H4V-4H0V-8ZM21 -16H25V-12H21V-16ZM21 -8H25V-4H21V-8ZM25 0H21V4H25V0ZM21 8H25V12H21V8ZM25 16H21V20H25V16ZM21 24H25V28H21V24ZM0 0H4V4H0V0ZM28 -16H32V-12H28V-16ZM28 -8H32V-4H28V-8ZM32 0H28V4H32V0ZM28 8H32V12H28V8ZM32 16H28V20H32V16ZM28 24H32V28H28V24ZM0 8H4V12H0V8ZM35 -16H39V-12H35V-16ZM35 -8H39V-4H35V-8ZM39 0H35V4H39V0ZM35 8H39V12H35V8ZM39 16H35V20H39V16ZM35 24H39V28H35V24ZM0 16H4V20H0V16ZM42 -16H46V-12H42V-16ZM42 -8H46V-4H42V-8ZM46 0H42V4H46V0ZM42 8H46V12H42V8ZM46 16H42V20H46V16ZM42 24H46V28H42V24ZM0 24H4V28H0V24ZM49 -16H53V-12H49V-16ZM49 -8H53V-4H49V-8ZM53 0H49V4H53V0ZM49 8H53V12H49V8ZM53 16H49V20H53V16ZM49 24H53V28H49V24Z" fill="#79C8C7"/>
</g>
</svg>
